<svg xmlns="http://www.w3.org/2000/svg" width="66" height="65" viewBox="0 0 66 65" fill="none">
<path d="M4.17095 31.3834L4.12431 32.3539L3.92703 32.3432L3.91268 32.1068L1.03228 30.8641L1.02511 30.8498L1 30.3341V30.3198L4.06333 29.3493L4.08844 29.1451L4.28573 29.1559L4.22834 30.3126L4.03105 30.3019V29.9724C3.8517 29.9831 3.47147 30.0584 3.0769 30.1837L2.83657 30.2589L3.03027 30.506C3.0195 30.6528 3.00516 30.814 2.9944 31.0002L2.97287 31.4264L3.06255 31.4658C3.38538 31.6054 3.73333 31.7021 3.93061 31.7308L3.97366 31.3798L4.17095 31.3906V31.3834ZM2.74689 30.2804L1.30849 30.728L2.71461 31.3118L2.75048 30.6206C2.76124 30.4344 2.75765 30.3556 2.75048 30.2768L2.74689 30.2804Z" fill="#44627F" stroke="#44627F" stroke-width="0.09397" stroke-miterlimit="10"/>
<path d="M4.58707 26.6096L3.99879 26.4736L4.04542 26.273L4.32163 26.2981C4.45076 26.1942 4.6337 25.8719 4.70903 25.5424C4.74131 25.3992 4.73772 25.2703 4.69826 25.1736C4.64805 25.0268 4.5512 24.9372 4.26423 24.8728C3.8589 24.7796 3.75129 24.9372 3.60422 25.3061L3.52889 25.4959C3.32801 26.008 3.17736 26.3554 2.56039 26.2121C2.16223 26.119 1.947 25.9256 1.83581 25.5603C1.74613 25.2739 1.73178 25.0482 1.80352 24.7367C1.87168 24.4358 1.99005 24.1852 2.09407 24.0276L2.65365 24.1565L2.60702 24.3606L2.35234 24.332C2.23038 24.4645 2.08331 24.7331 2.01874 25.016C1.98287 25.1628 1.99005 25.2882 2.02592 25.392C2.07614 25.546 2.17299 25.6212 2.45995 25.6893C2.86529 25.7824 2.9729 25.6284 3.11997 25.2595L3.19529 25.0697C3.39617 24.5576 3.54682 24.2138 4.1638 24.3571C4.56196 24.4502 4.77718 24.6436 4.89196 25.0017C4.98164 25.2882 4.9924 25.5174 4.92066 25.8289C4.84175 26.1727 4.69826 26.4771 4.58707 26.6132V26.6096Z" fill="#44627F" stroke="#44627F" stroke-width="0.09397" stroke-miterlimit="10"/>
<path d="M6.41286 20.9944L5.93937 22.0687L5.76002 21.9899L5.86763 21.7106C5.81741 21.6676 5.56632 21.5423 4.96728 21.2773L4.34672 21.0051C3.70464 20.7222 3.41409 20.6112 3.33159 20.5933L3.19528 20.8618L3.01593 20.7831L3.48942 19.7087L3.66877 19.7875L3.56116 20.0704C3.61497 20.1098 3.86247 20.2351 4.46151 20.5001L4.64086 20.5789L5.08924 19.5619C5.21479 19.2754 5.26859 19.1214 5.27935 18.9853L5.23631 18.9638C4.59782 18.6845 4.31444 18.5734 4.22835 18.5591L4.09204 18.8313L3.91269 18.7525L4.38977 17.6746L4.56912 17.7533L4.46151 18.0363C4.51173 18.0792 4.76282 18.201 5.36186 18.466L5.98241 18.7382C6.62449 19.0211 6.91146 19.1357 6.99755 19.1536L7.13385 18.8814L7.31321 18.9602L6.83613 20.0382L6.65678 19.9594L6.76439 19.6765C6.71417 19.6335 6.46308 19.5081 5.86763 19.2431L5.39055 19.0318L5.49458 19.3935C5.41566 19.5511 5.33316 19.7194 5.20403 20.0167L4.9063 20.6935L5.08565 20.7723C5.72773 21.0552 6.01828 21.1663 6.10079 21.1877L6.23709 20.9156L6.41645 20.9944H6.41286Z" fill="#44627F" stroke="#44627F" stroke-width="0.09397" stroke-miterlimit="10"/>
<path d="M9.41159 15.5975L8.6332 16.704L8.47179 16.593L8.62603 16.3459C8.57222 16.285 8.34983 16.0988 7.76873 15.6906L7.31676 15.3754C6.66392 14.9206 6.43793 14.7917 6.35543 14.763L6.17967 14.9886L6.01825 14.8776L6.87555 13.6564C7.25937 13.1085 7.57503 13.0297 7.98754 13.3198C8.26015 13.5132 8.40005 13.8104 8.30678 14.165C8.59733 13.8534 8.91658 13.7782 9.27528 14.0289C9.58018 14.2437 9.72725 14.5374 9.69138 14.8884C9.66986 15.1068 9.60529 15.3253 9.41518 15.5975H9.41159ZM7.68264 15.0173L8.01265 14.5482C8.192 14.2903 8.13819 14.0468 7.81894 13.8247L7.78307 13.7997C7.41002 13.5382 7.19121 13.6063 6.85044 14.0933L6.6962 14.3118C6.7787 14.3834 6.96882 14.5195 7.12665 14.6305L7.68264 15.0173ZM9.28963 15.336C9.37572 15.2107 9.41877 15.1176 9.42953 15.0209C9.44387 14.8275 9.30757 14.695 9.08517 14.5374L9.03137 14.5016C8.73364 14.2939 8.45026 14.3655 8.15613 14.7809L7.8871 15.1641L7.98754 15.2357C8.53277 15.6189 8.76592 15.7693 8.86995 15.8231C8.95604 15.7443 9.14974 15.533 9.28963 15.336Z" fill="#44627F" stroke="#44627F" stroke-width="0.09397" stroke-miterlimit="10"/>
<path d="M11.9082 12.0628C11.5423 12.0556 11.2374 11.873 10.8357 11.454C10.251 10.8523 10.1183 10.4476 10.2833 9.86032C10.3622 9.58099 10.4806 9.36612 10.7819 9.07246C11.1047 8.76089 11.3988 8.61406 11.7432 8.62122C12.1127 8.62838 12.414 8.81461 12.8157 9.23003C13.4004 9.83167 13.5331 10.2364 13.3681 10.8237C13.2892 11.103 13.1708 11.3179 12.8695 11.6115C12.5467 11.9231 12.2526 12.0699 11.9046 12.0628H11.9082ZM13.1278 10.7986C13.2139 10.4763 13.1206 10.3044 12.6292 9.79944L12.4929 9.65978C12.0875 9.24077 11.8652 9.09752 11.5495 9.09394C11.3056 9.09036 11.0796 9.20138 10.807 9.46281C10.6707 9.59531 10.5702 9.7314 10.5308 9.88897C10.4411 10.2149 10.5379 10.3832 11.0294 10.8881L11.1657 11.0278C11.571 11.4468 11.7862 11.5936 12.1055 11.5972C12.3566 11.6008 12.5754 11.4898 12.848 11.2284C12.9843 11.0958 13.0847 10.9598 13.1314 10.7986H13.1278Z" fill="#44627F" stroke="#44627F" stroke-width="0.09397" stroke-miterlimit="10"/>
<path d="M16.5427 8.28104L16.8045 8.09123C16.7902 8.02319 16.6718 7.81548 16.2916 7.2389L15.9257 6.68381C15.6029 6.19318 15.4271 5.9425 15.3446 5.83148L15.115 5.98189C14.6236 6.3042 14.5339 6.38299 14.4012 6.6659L14.2721 6.63009L14.351 6.1323L14.3618 6.12156C14.4801 6.06784 14.5698 6.0177 15.0325 5.7133L16.0943 5.01496C16.41 4.80725 16.4745 4.72846 16.5606 4.51001L16.6933 4.54224L16.6144 5.02929L16.6037 5.04003C16.4171 5.1403 16.227 5.25132 15.915 5.45903L15.7966 5.53782C15.8576 5.64526 16.001 5.8852 16.2916 6.32569L16.6575 6.88078C17.0664 7.50033 17.2314 7.7152 17.296 7.76892L17.5758 7.60418L17.6834 7.76892L16.6503 8.44935L16.5427 8.28462V8.28104Z" fill="#44627F" stroke="#44627F" stroke-width="0.09397" stroke-miterlimit="10"/>
<path d="M20.5135 6.07507L20.2732 5.52356L20.4633 5.44119L20.6104 5.67756C20.7718 5.72053 21.1377 5.67039 21.4497 5.53789C21.586 5.47701 21.6829 5.39822 21.7403 5.30869C21.83 5.17977 21.8407 5.05084 21.7259 4.78225C21.5573 4.39906 21.3672 4.40622 20.9834 4.51008L20.7861 4.5638C20.2552 4.71063 19.8858 4.79657 19.6311 4.21642C19.4697 3.84397 19.4948 3.55389 19.7208 3.24591C19.9001 3.00238 20.0723 2.85913 20.3629 2.73021C20.6462 2.60487 20.9188 2.55115 21.1054 2.54041L21.3349 3.06684L21.1412 3.15279L21.0121 2.93076C20.8328 2.91285 20.5279 2.95225 20.2624 3.07043C20.1225 3.13131 20.0293 3.21009 19.9647 3.29962C19.8714 3.43213 19.8678 3.55747 19.9862 3.82606C20.1548 4.20925 20.3413 4.20209 20.7251 4.09824L20.9224 4.04452C21.4533 3.89769 21.8192 3.81532 22.0739 4.39548C22.2353 4.76792 22.2102 5.058 21.9878 5.36599C21.8084 5.60951 21.6327 5.75634 21.3421 5.88527C21.0193 6.02493 20.6893 6.09656 20.5135 6.08581V6.07507Z" fill="#44627F" stroke="#44627F" stroke-width="0.09397" stroke-miterlimit="10"/>
<path d="M29.6031 3.5646L28.3548 3.71501L28.3333 3.52162L28.6275 3.47149C28.6382 3.40703 28.6203 3.12769 28.5414 2.47949L28.466 1.85278C28.3728 1.06491 28.3154 0.81064 28.2831 0.728272L27.9997 0.746178L27.9746 0.552792L29.4561 0.373731C30.1053 0.294944 30.4533 0.524142 30.5214 1.1043C30.5752 1.53763 30.4604 1.82413 30.1304 2.04974C29.9152 2.20015 29.7466 2.27178 29.4023 2.31475L29.0364 2.35773L29.0471 2.4401C29.126 3.09188 29.1727 3.32466 29.205 3.38912L29.578 3.36047L29.6031 3.5646ZM29.0005 2.04616C29.1942 2.0569 29.3664 2.0569 29.5206 2.039C29.6856 2.01751 29.8327 1.97096 29.9188 1.89575C30.0372 1.79906 30.073 1.68446 30.0264 1.30127L30.0192 1.24755C29.9618 0.760503 29.7394 0.563536 28.9933 0.653066L28.8606 0.667391C28.8606 0.749759 28.875 0.993282 28.9359 1.51256L29.0005 2.04258V2.04616Z" fill="#44627F" stroke="#44627F" stroke-width="0.09397" stroke-miterlimit="10"/>
<path d="M34.5819 3.41414L33.3874 3.34252L33.3982 3.14555H33.6995C33.721 3.08467 33.7533 2.80892 33.7963 2.15713L33.8358 1.52684C33.8824 0.73539 33.8752 0.473961 33.8573 0.388012L33.5739 0.355781L33.5847 0.158813L35.1199 0.251925C35.7405 0.291319 36.049 0.567073 36.0167 1.12216C35.988 1.57698 35.7764 1.82408 35.2778 1.91719C35.5002 2.00314 35.6365 2.21802 35.8194 2.72655L35.9306 3.04886C36.0023 3.24583 36.0346 3.26015 36.2176 3.28164L36.2032 3.51084L35.5647 3.47144C35.5073 3.43205 35.4715 3.33177 35.4069 3.14913L35.2742 2.75878C35.0661 2.14639 34.9119 2.02463 34.6177 2.00672C34.4886 1.99956 34.3738 1.99598 34.3128 1.99956L34.3021 2.18578C34.2626 2.8304 34.259 3.10974 34.2734 3.18494L34.5962 3.22076L34.5855 3.41772L34.5819 3.41414ZM34.3236 1.73813C34.5101 1.7632 34.6644 1.77753 34.7863 1.78469C35.2168 1.80976 35.4464 1.67367 35.475 1.21885V1.18662C35.5073 0.667347 35.31 0.491867 34.5532 0.448892L34.424 0.44173C34.4097 0.524098 34.381 0.76404 34.3487 1.2869L34.32 1.74171L34.3236 1.73813Z" fill="#44627F" stroke="#44627F" stroke-width="0.09397" stroke-miterlimit="10"/>
<path d="M39.1159 3.69345C38.9258 3.37831 38.9258 3.02376 39.0693 2.46151C39.2774 1.64858 39.55 1.32627 40.1347 1.15437C40.4145 1.072 40.6584 1.06126 41.0709 1.16511C41.5049 1.27613 41.7847 1.44803 41.9605 1.74527C42.147 2.06042 42.1506 2.41496 42.0071 2.97721C41.7991 3.79015 41.5264 4.11246 40.9418 4.28435C40.662 4.36672 40.418 4.37747 40.0055 4.27361C39.5715 4.16259 39.2917 3.99069 39.1159 3.69345ZM40.8341 4.06232C41.1534 3.96563 41.2538 3.79373 41.426 3.11329L41.4726 2.92349C41.6161 2.35766 41.6233 2.09623 41.4583 1.82406C41.3327 1.61634 41.1211 1.48026 40.7552 1.38715C40.5687 1.34059 40.4001 1.32627 40.2459 1.37282C39.923 1.46951 39.8298 1.64141 39.654 2.32184L39.6074 2.51165C39.4639 3.07748 39.4531 3.33533 39.6181 3.61108C39.7473 3.82596 39.9553 3.95488 40.3212 4.04799C40.5077 4.09455 40.6763 4.10887 40.8341 4.06232Z" fill="#44627F" stroke="#44627F" stroke-width="0.09397" stroke-miterlimit="10"/>
<path d="M44.7762 5.64881L45.0775 5.77057C45.1277 5.72401 45.2425 5.51272 45.5366 4.88601L45.82 4.28078C46.0711 3.74718 46.1895 3.46784 46.2433 3.3425L45.9922 3.22432C45.4577 2.97364 45.3465 2.93782 45.0344 2.97722L44.9986 2.84829L45.4649 2.65491H45.4792C45.5869 2.73011 45.6765 2.78025 46.1787 3.01661L47.3302 3.55379C47.6745 3.71495 47.7749 3.72927 48.0045 3.6863L48.0476 3.81522L47.592 4.00145H47.5777C47.3947 3.89401 47.1974 3.79015 46.8603 3.63258L46.7311 3.5717C46.6701 3.67914 46.5446 3.92624 46.3186 4.40612L46.0352 5.01135C45.7196 5.68104 45.6263 5.93531 45.612 6.02125L45.8989 6.17167L45.8164 6.35073L44.6973 5.82787L44.7798 5.64881H44.7762Z" fill="#44627F" stroke="#44627F" stroke-width="0.09397" stroke-miterlimit="10"/>
<path d="M49.9846 8.88264L48.7363 7.99092L48.8511 7.82976L49.095 7.98734C49.156 7.93362 49.3461 7.71516 49.7586 7.13501L50.0779 6.68735C50.5406 6.04273 50.6733 5.81712 50.702 5.73475L50.4796 5.55569L50.5944 5.39453L51.8678 6.30416C52.1727 6.52262 52.2767 6.55843 52.5027 6.57275L52.5207 6.70526L52.04 6.80195H52.0256C51.8893 6.66945 51.71 6.51187 51.2975 6.21463L51.1396 6.10361C51.0787 6.16449 50.9531 6.33281 50.7235 6.65154L50.4581 7.02399L51.05 7.44657C51.362 7.66861 51.4804 7.71516 51.7028 7.74023V7.87632L51.1791 7.90855H51.1648C51.0787 7.82976 50.867 7.65428 50.6949 7.53252L50.3003 7.2496L50.2142 7.36778C49.8196 7.91929 49.6761 8.13417 49.6259 8.23086C49.712 8.32755 49.9667 8.55317 50.1927 8.71432C50.5298 8.95427 50.7953 9.01873 51.1361 9.00798L51.1468 9.14407L50.4976 9.25867H50.4868C50.3792 9.17272 50.1676 9.01156 49.9882 8.88264H49.9846Z" fill="#44627F" stroke="#44627F" stroke-width="0.09397" stroke-miterlimit="10"/>
<path d="M53.8192 10.1468C54.4398 9.54518 54.8702 9.44133 55.4585 9.60248C55.7383 9.67769 55.9643 9.79587 56.2548 10.0967C56.5167 10.3653 56.6673 10.6482 56.7463 10.8559L56.2369 11.3501L56.0898 11.1997L56.305 10.906C56.2764 10.6948 56.1436 10.4118 55.889 10.1468C55.7311 9.98567 55.5984 9.88182 55.4334 9.84243C55.1106 9.76006 54.8774 9.84242 54.4003 10.3044L54.2891 10.4154C53.6148 11.0672 53.6686 11.6402 54.1743 12.1631C54.4147 12.4102 54.7124 12.5319 55.0245 12.5212L55.0388 12.5355L55.0101 12.6895C54.6478 12.7396 54.1887 12.6788 53.7224 12.1953C53.1054 11.5614 53.1018 10.8487 53.8228 10.1468H53.8192Z" fill="#44627F" stroke="#44627F" stroke-width="0.09397" stroke-miterlimit="10"/>
<path d="M56.8144 15.5617L57.0081 15.8231C57.0762 15.8088 57.2843 15.687 57.8582 15.3038L58.4142 14.935C58.9056 14.6091 59.1531 14.43 59.2643 14.3512L59.1101 14.122C58.7836 13.6314 58.7047 13.5419 58.4178 13.4165L58.4536 13.2876L58.9522 13.3628L58.9666 13.3735C59.0204 13.4917 59.0706 13.5813 59.3791 14.0432L60.0857 15.0997C60.2974 15.4148 60.3763 15.4793 60.5951 15.5617L60.5664 15.6942L60.0786 15.619L60.0642 15.6082C59.9638 15.422 59.849 15.2322 59.6409 14.9242L59.562 14.806C59.4544 14.8669 59.2177 15.0137 58.7765 15.3074L58.2205 15.6799C57.6035 16.0917 57.3919 16.2564 57.3345 16.3245L57.5031 16.6002L57.3381 16.7077L56.6494 15.6799L56.8144 15.5724V15.5617Z" fill="#44627F" stroke="#44627F" stroke-width="0.09397" stroke-miterlimit="10"/>
<path d="M60.4481 22.6238L60.5521 22.9067C60.6202 22.9067 60.8893 22.8387 61.5134 22.6453L62.1196 22.4591C62.8801 22.2263 63.1204 22.126 63.1957 22.0795L63.1276 21.8037L63.3141 21.7464L63.741 23.1323C63.8522 23.4869 63.9096 23.5836 64.0853 23.7304L64.0172 23.8486L63.576 23.6337L63.5688 23.6194C63.5365 23.4332 63.4899 23.2004 63.3428 22.7133L63.3213 22.6381C63.2388 22.6489 63.0343 22.7062 62.6577 22.8208L62.2057 22.9604L62.3994 23.5943C62.5142 23.9703 62.5931 24.0634 62.7832 24.2103L62.7115 24.3285L62.2308 24.0814L62.2201 24.067C62.2021 23.956 62.1376 23.6803 62.0766 23.4869L61.9403 23.0428L61.7286 23.1073C61.0327 23.3221 60.796 23.4152 60.7314 23.4582L60.8283 23.8199L60.631 23.8808L60.2615 22.6811L60.4481 22.6238Z" fill="#44627F" stroke="#44627F" stroke-width="0.09397" stroke-miterlimit="10"/>
<path d="M61.6641 28.891L61.4668 27.3296L61.6605 27.3045L61.7107 27.591C61.7896 27.6017 62.0802 27.591 62.7868 27.4979L63.4612 27.4119C64.1176 27.3296 64.401 27.2794 64.4584 27.2508L64.4333 26.9535L64.627 26.9285L64.7848 28.1747L64.5804 28.1998L64.5194 27.8309C64.444 27.8166 64.1858 27.8309 63.4612 27.9205L62.9195 27.9885C62.2488 28.0745 61.9905 28.1174 61.8865 28.1461C61.8721 28.275 61.8829 28.6152 61.9152 28.8838C61.969 29.2921 62.1017 29.532 62.342 29.772L62.2524 29.8758L61.7286 29.5105L61.7215 29.4998C61.7071 29.3637 61.6856 29.1023 61.6569 28.8838L61.6641 28.891Z" fill="#44627F" stroke="#44627F" stroke-width="0.09397" stroke-miterlimit="10"/>
<path d="M61.8326 33.1526L61.89 32.1821L62.0873 32.1929L62.0981 32.4292L64.9713 33.6934L64.9821 33.7077L65 34.2234L64.9928 34.2377L61.9295 35.1868L61.9044 35.3909L61.7071 35.3802L61.7752 34.227L61.9725 34.2377V34.5672C62.1519 34.5565 62.5285 34.4849 62.9231 34.3631L63.1634 34.2879L62.9697 34.0408C62.9841 33.894 62.9984 33.7328 63.0092 33.5466L63.0343 33.1204L62.9446 33.081C62.6218 32.9413 62.2738 32.8411 62.0801 32.8088L62.0335 33.1598L61.8362 33.1491L61.8326 33.1526ZM63.2495 34.2664L64.6915 33.8295L63.289 33.2314L63.2495 33.9226C63.2388 34.1088 63.2388 34.1876 63.2495 34.2664Z" fill="#44627F" stroke="#44627F" stroke-width="0.09397" stroke-miterlimit="10"/>
<path d="M61.3807 37.9264L61.969 38.0661L61.9224 38.2666L61.6462 38.2415C61.5134 38.3454 61.3305 38.6641 61.2516 38.9936C61.2193 39.1368 61.2229 39.2622 61.2588 39.3625C61.309 39.5093 61.4022 39.5988 61.6892 39.6669C62.0945 39.7636 62.2022 39.6096 62.3528 39.2407L62.4281 39.0509C62.6326 38.5388 62.7868 38.195 63.4002 38.3418C63.7984 38.4349 64.0136 38.6355 64.1212 38.9972C64.2073 39.2837 64.2217 39.5093 64.1463 39.8209C64.0746 40.1217 63.9526 40.3688 63.8522 40.5264L63.2926 40.3939L63.3428 40.1897L63.5975 40.222C63.7195 40.0895 63.8701 39.8244 63.9383 39.5415C63.9741 39.3947 63.967 39.2729 63.9311 39.1655C63.8809 39.0115 63.784 38.9327 63.4971 38.8647C63.0917 38.768 62.9841 38.922 62.8335 39.2908L62.7581 39.4806C62.5537 39.9928 62.403 40.333 61.7861 40.1861C61.3915 40.093 61.1763 39.8925 61.0651 39.5344C60.979 39.2479 60.9682 39.0187 61.0399 38.7071C61.1224 38.3633 61.2659 38.0625 61.3771 37.9264H61.3807Z" fill="#44627F" stroke="#44627F" stroke-width="0.09397" stroke-miterlimit="10"/>
<path d="M59.5118 43.5202L59.9925 42.453L60.1719 42.5318L60.0607 42.8111C60.1109 42.8541 60.3584 42.983 60.9574 43.2516L61.5744 43.5309C62.2165 43.8174 62.5034 43.932 62.5859 43.95L62.7222 43.6849L62.9016 43.7637L62.4173 44.8309L62.238 44.7521L62.3492 44.4692C62.2954 44.4298 62.0479 44.3009 61.4524 44.0323L61.2731 43.95L60.8139 44.9634C60.6848 45.2499 60.631 45.4039 60.6202 45.5364L60.6633 45.5579C61.2982 45.8444 61.5816 45.9554 61.6676 45.9733L61.8075 45.7012L61.9869 45.78L61.5026 46.8543L61.3233 46.772L61.4345 46.489C61.3843 46.4461 61.1332 46.3207 60.5377 46.0521L59.9208 45.7728C59.2787 45.4863 58.9953 45.3681 58.9092 45.3502L58.7693 45.6224L58.59 45.54L59.0742 44.4656L59.2536 44.5444L59.1424 44.8274C59.1926 44.8703 59.4401 44.9992 60.0391 45.2678L60.5126 45.4827L60.4122 45.121C60.4947 44.9634 60.5736 44.7951 60.7099 44.5015L61.0148 43.8246L60.8355 43.7458C60.197 43.4593 59.9064 43.3447 59.8239 43.3232L59.684 43.5954L59.5047 43.5166L59.5118 43.5202Z" fill="#44627F" stroke="#44627F" stroke-width="0.09397" stroke-miterlimit="10"/>
<path d="M56.4736 48.8992L57.2591 47.7962L57.4205 47.9108L57.2627 48.1543C57.3165 48.2152 57.5353 48.405 58.1164 48.8169L58.5648 49.1356C59.2141 49.5976 59.44 49.7265 59.5225 49.7551L59.6983 49.5331L59.8597 49.6477L58.9917 50.8617C58.6043 51.4061 58.2886 51.4813 57.8761 51.1876C57.6035 50.9942 57.4708 50.6934 57.564 50.3389C57.2699 50.6469 56.9506 50.7221 56.5955 50.4678C56.2906 50.2529 56.1471 49.9557 56.1866 49.6047C56.2081 49.3863 56.2763 49.1678 56.47 48.8956L56.4736 48.8992ZM56.5919 49.1642C56.5022 49.2896 56.4592 49.3827 56.452 49.4794C56.4341 49.6728 56.5704 49.8053 56.7928 49.9628L56.843 49.9987C57.1407 50.2099 57.4241 50.1419 57.7183 49.7265L57.9873 49.3469L57.8868 49.2752C57.3416 48.8885 57.112 48.7381 57.008 48.6808C56.9219 48.7596 56.7246 48.9673 56.5847 49.1642H56.5919ZM58.1953 49.4937L57.8617 49.9593C57.6788 50.2135 57.7326 50.4571 58.0518 50.6827L58.0877 50.7077C58.4608 50.9727 58.676 50.9047 59.0239 50.4212L59.1782 50.2064C59.0957 50.1347 58.9056 49.9951 58.7513 49.8841L58.1989 49.4901L58.1953 49.4937Z" fill="#44627F" stroke="#44627F" stroke-width="0.09397" stroke-miterlimit="10"/>
<path d="M53.9484 52.416C54.3178 52.4232 54.6191 52.613 55.0173 53.032C55.5948 53.6372 55.7239 54.0455 55.5589 54.6292C55.48 54.9085 55.3581 55.1234 55.0532 55.4135C54.7303 55.7215 54.4326 55.8683 54.0882 55.8576C53.7224 55.8468 53.4211 55.6606 53.0193 55.2416C52.4418 54.6364 52.3127 54.2281 52.4777 53.6444C52.5566 53.365 52.6785 53.1502 52.9834 52.8601C53.3063 52.5521 53.6004 52.4053 53.9484 52.416ZM52.7216 53.673C52.6319 53.9918 52.7252 54.1672 53.213 54.6758L53.3493 54.819C53.7511 55.2416 53.9699 55.3848 54.2891 55.392C54.533 55.3992 54.759 55.2882 55.0352 55.0303C55.1751 54.8978 55.2756 54.7617 55.315 54.6077C55.4047 54.2854 55.3114 54.1135 54.8236 53.605L54.6873 53.4617C54.2855 53.0391 54.0703 52.8923 53.7511 52.8852C53.5 52.878 53.2776 52.989 53.005 53.2504C52.8651 53.3829 52.7646 53.519 52.7216 53.6766V53.673Z" fill="#44627F" stroke="#44627F" stroke-width="0.09397" stroke-miterlimit="10"/>
<path d="M49.2888 56.1655L49.0233 56.3554C49.0377 56.4234 49.156 56.6311 49.5327 57.2113L49.895 57.7699C50.2142 58.2641 50.39 58.5148 50.4689 58.6258L50.6985 58.4754C51.1935 58.1567 51.2831 58.0779 51.4159 57.795L51.545 57.8344L51.4625 58.3322L51.4517 58.3429C51.3334 58.3966 51.2437 58.4432 50.7774 58.744L49.7084 59.4352C49.3928 59.6393 49.3246 59.7181 49.2385 59.9402L49.1058 59.9079L49.1883 59.4209L49.1991 59.4101C49.3856 59.3099 49.5793 59.1988 49.8914 58.9983L50.0097 58.9195C49.9524 58.8121 49.8053 58.5721 49.5183 58.1281L49.156 57.5694C48.7543 56.9498 48.5893 56.7314 48.5211 56.6777L48.2413 56.8424L48.1337 56.6777L49.1704 56.0044L49.278 56.1691L49.2888 56.1655Z" fill="#44627F" stroke="#44627F" stroke-width="0.09397" stroke-miterlimit="10"/>
<path d="M45.3108 58.3322L45.5475 58.8872L45.3574 58.9696L45.2139 58.7332C45.0525 58.6903 44.6866 58.7333 44.3745 58.8693C44.2382 58.9266 44.1414 59.0054 44.0804 59.0949C43.9907 59.2239 43.9764 59.3528 44.0948 59.6214C44.2598 60.0046 44.4499 59.9974 44.8337 59.8971L45.031 59.8434C45.5619 59.7002 45.9313 59.6178 46.1824 60.198C46.3438 60.5704 46.3115 60.8641 46.0856 61.1685C45.9062 61.412 45.734 61.5552 45.4399 61.6806C45.1565 61.8024 44.8839 61.8525 44.6974 61.8632L44.4714 61.3368L44.6651 61.2544L44.7942 61.4765C44.9736 61.4944 45.2785 61.4586 45.5439 61.344C45.6838 61.2831 45.7771 61.2079 45.8416 61.1148C45.9349 60.9823 45.9421 60.8605 45.8237 60.5883C45.6587 60.2051 45.4686 60.2123 45.0848 60.3126L44.8875 60.3663C44.3566 60.5095 43.9907 60.5883 43.7396 60.0082C43.5782 59.6357 43.6105 59.3421 43.8329 59.0412C44.0123 58.8013 44.1916 58.6545 44.4857 58.5291C44.8122 58.3894 45.1386 58.325 45.3143 58.3357L45.3108 58.3322Z" fill="#44627F" stroke="#44627F" stroke-width="0.09397" stroke-miterlimit="10"/>
<path d="M36.1889 60.7782L37.4372 60.6385L37.4587 60.8319L37.161 60.8784C37.1502 60.9429 37.1645 61.2222 37.2363 61.8704L37.308 62.4971C37.3977 63.285 37.4515 63.5429 37.4838 63.6216L37.7672 63.6037L37.7887 63.7971L36.3036 63.9619C35.6544 64.0335 35.3064 63.8007 35.2419 63.2206C35.1952 62.7872 35.31 62.5043 35.64 62.2787C35.8553 62.1319 36.0239 62.0567 36.3718 62.0208L36.7377 61.9814L36.7269 61.8991C36.6552 61.2473 36.6085 61.0145 36.5763 60.9501L36.2032 60.9787L36.1817 60.7746L36.1889 60.7782ZM36.7807 62.3002C36.587 62.2859 36.4148 62.2859 36.2606 62.3002C36.0956 62.3181 35.9449 62.3646 35.8624 62.4398C35.7441 62.5365 35.7082 62.6511 35.7512 63.0343L35.7584 63.088C35.8122 63.5751 36.031 63.7721 36.7807 63.6897L36.9134 63.6754C36.9134 63.593 36.9027 63.3495 36.8417 62.8302L36.7807 62.3002Z" fill="#44627F" stroke="#44627F" stroke-width="0.09397" stroke-miterlimit="10"/>
<path d="M31.2137 60.8963L32.4082 60.9787L32.3938 61.1756L32.0925 61.1685C32.0674 61.2294 32.0351 61.5087 31.9921 62.1605L31.949 62.7908C31.8952 63.5822 31.9024 63.8436 31.9203 63.9296L32.2037 63.9618L32.1894 64.1588L30.6541 64.0549C30.03 64.012 29.7251 63.7326 29.7645 63.1775C29.7968 62.7227 30.0084 62.4756 30.507 62.3861C30.2882 62.2966 30.1483 62.0817 29.9726 61.5731L29.8614 61.2508C29.7896 61.0539 29.7574 61.036 29.578 61.0145L29.5923 60.7853L30.2308 60.8283C30.2882 60.8676 30.3241 60.9679 30.3851 61.1541L30.5178 61.5481C30.7223 62.1605 30.8765 62.2858 31.1706 62.3037C31.2998 62.3109 31.4146 62.3145 31.4755 62.3145L31.4899 62.1282C31.5329 61.4836 31.5365 61.2043 31.5222 61.1291L31.1993 61.0933L31.2137 60.8963ZM31.4576 62.5759C31.2747 62.5472 31.1168 62.5329 30.9949 62.5258C30.5644 62.4971 30.3349 62.6332 30.3026 63.088V63.1238C30.2667 63.6431 30.464 63.8186 31.2209 63.8687L31.35 63.8759C31.3643 63.7935 31.3966 63.5536 31.4325 63.0307L31.4648 62.5759H31.4576Z" fill="#44627F" stroke="#44627F" stroke-width="0.09397" stroke-miterlimit="10"/>
<path d="M26.6832 60.5776C26.8697 60.8964 26.8661 61.2509 26.719 61.8096C26.5074 62.6225 26.2276 62.9448 25.6429 63.1096C25.3631 63.1884 25.1156 63.1991 24.7067 63.0952C24.2727 62.9806 23.9965 62.8087 23.8207 62.5079C23.6342 62.1892 23.6378 61.8347 23.7848 61.276C23.9965 60.463 24.2762 60.1407 24.8609 59.976C25.1407 59.8972 25.3882 59.8865 25.7972 59.9939C26.2312 60.1085 26.5074 60.2804 26.6832 60.5812V60.5776ZM24.965 60.1945C24.6457 60.2876 24.5453 60.4595 24.3659 61.1399L24.3157 61.3297C24.1686 61.8955 24.1615 62.157 24.3229 62.4327C24.4448 62.644 24.6565 62.7801 25.0259 62.8732C25.2125 62.9233 25.3811 62.9341 25.5353 62.8911C25.8581 62.798 25.955 62.6261 26.1343 61.9457L26.1846 61.7559C26.3316 61.19 26.346 60.9322 26.1846 60.6564C26.059 60.4416 25.8474 60.3091 25.4815 60.2124C25.295 60.1658 25.1264 60.1515 24.9685 60.1945H24.965Z" fill="#44627F" stroke="#44627F" stroke-width="0.09397" stroke-miterlimit="10"/>
<path d="M21.0301 58.5793L20.7323 58.454C20.6821 58.5005 20.5673 58.7118 20.2696 59.335L19.9827 59.9366C19.728 60.4666 19.606 60.746 19.5522 60.8713L19.7997 60.9895C20.3306 61.2438 20.4454 61.2796 20.7539 61.2437L20.7897 61.3763L20.3234 61.5661H20.3091C20.2015 61.4909 20.1118 61.4371 19.6132 61.2008L18.4653 60.6528C18.1246 60.4917 18.0241 60.4738 17.791 60.5168L17.7479 60.3878L18.2071 60.2052H18.2214C18.4044 60.3162 18.5981 60.4201 18.9352 60.5812L19.0644 60.6421C19.1253 60.5347 19.2545 60.2876 19.4841 59.8113L19.771 59.2096C20.0903 58.5399 20.1871 58.2892 20.2015 58.2033L19.9145 58.0493L20.0006 57.8702L21.1162 58.4038L21.0301 58.5793Z" fill="#44627F" stroke="#44627F" stroke-width="0.09397" stroke-miterlimit="10"/>
<path d="M15.8504 55.3061L17.0951 56.2085L16.9803 56.3661L16.7364 56.2085C16.6754 56.2587 16.4853 56.4807 16.0656 57.0537L15.7428 57.4978C15.2765 58.1388 15.1437 58.3644 15.115 58.4468L15.3374 58.6259L15.2227 58.7834L13.9564 57.8631C13.6551 57.6446 13.5511 57.6052 13.3215 57.5909L13.3036 57.4548L13.7843 57.3617H13.7986C13.9349 57.4942 14.1107 57.6553 14.5232 57.9526L14.6774 58.0636C14.7384 58.0063 14.8675 57.838 15.0971 57.5193L15.3661 57.1504L14.7779 56.7242C14.4694 56.4986 14.351 56.4521 14.125 56.427V56.2909L14.6523 56.2622H14.6667C14.7528 56.341 14.9644 56.5201 15.133 56.6419L15.5276 56.9284L15.6136 56.8102C16.0118 56.2623 16.1589 56.0474 16.2091 55.9507C16.123 55.8504 15.8683 55.6248 15.6459 55.4636C15.3123 55.2237 15.0469 55.1557 14.7061 55.1628L14.6954 55.0267L15.3446 54.9157H15.3554C15.463 55.0017 15.671 55.1664 15.8504 55.2953V55.3061Z" fill="#44627F" stroke="#44627F" stroke-width="0.09397" stroke-miterlimit="10"/>
<path d="M12.0265 54.0168C11.4024 54.6149 10.9684 54.7151 10.3873 54.5468C10.1075 54.468 9.88508 54.3499 9.59453 54.049C9.33626 53.7804 9.1856 53.4975 9.10669 53.2862L9.61964 52.7956L9.76671 52.9496L9.5479 53.2397C9.57659 53.451 9.70573 53.7339 9.96041 53.9989C10.1182 54.1636 10.251 54.2639 10.4124 54.3069C10.7352 54.3928 10.9684 54.3105 11.4454 53.8521L11.5602 53.7446C12.2382 53.0964 12.1915 52.5234 11.6858 52.0006C11.449 51.7535 11.1513 51.6281 10.8392 51.6353L10.8249 51.621L10.8572 51.4706C11.2195 51.424 11.6786 51.4885 12.1413 51.9719C12.7547 52.6094 12.7511 53.322 12.0265 54.0204V54.0168Z" fill="#44627F" stroke="#44627F" stroke-width="0.09397" stroke-miterlimit="10"/>
<path d="M9.07444 48.5805L8.88433 48.3191C8.81618 48.3334 8.60813 48.4552 8.03061 48.8348L7.47104 49.2001C6.97961 49.5224 6.72852 49.6979 6.61732 49.7766L6.76797 50.0059C7.09081 50.4965 7.16972 50.586 7.4531 50.7185L7.41723 50.8474L6.91863 50.7686L6.90428 50.7579C6.85048 50.6397 6.80026 50.5502 6.49895 50.0846L5.79947 49.0246C5.59143 48.7094 5.51251 48.645 5.2937 48.559L5.32598 48.4265L5.81382 48.5053L5.82817 48.5161C5.92861 48.7023 6.03981 48.8921 6.24427 49.2037L6.32318 49.3218C6.43079 49.2645 6.67112 49.1177 7.11233 48.8276L7.66832 48.4623C8.28888 48.0541 8.5041 47.8893 8.55791 47.8249L8.3929 47.5455L8.55791 47.4381L9.23945 48.4695L9.07444 48.5769V48.5805Z" fill="#44627F" stroke="#44627F" stroke-width="0.09397" stroke-miterlimit="10"/>
<path d="M5.49095 41.4968L5.39052 41.2139C5.32236 41.2139 5.04975 41.2784 4.4256 41.4682L3.81939 41.6508C3.05894 41.88 2.81502 41.9767 2.74328 42.0233L2.81143 42.299L2.62491 42.3563L2.20881 40.9668C2.1012 40.6087 2.04381 40.5156 1.86804 40.3687L1.9362 40.2506L2.37381 40.469L2.38099 40.4833C2.40969 40.6696 2.45632 40.9023 2.60339 41.3894L2.62491 41.4646C2.711 41.4538 2.91187 41.4001 3.28851 41.2855L3.74048 41.1494L3.55036 40.5156C3.43917 40.1395 3.35666 40.0464 3.17014 39.896L3.24188 39.7778L3.72254 40.0285L3.7333 40.0428C3.75124 40.1539 3.81222 40.4296 3.8732 40.6266L4.00592 41.0742L4.21755 41.0098C4.91344 40.8021 5.15377 40.7089 5.21475 40.666L5.12149 40.3043L5.31878 40.2434L5.68107 41.4467L5.49095 41.504V41.4968Z" fill="#44627F" stroke="#44627F" stroke-width="0.09397" stroke-miterlimit="10"/>
<path d="M4.32163 35.2083L4.50815 36.7697L4.31445 36.7948L4.26423 36.5083C4.18532 36.4975 3.89477 36.5083 3.18812 36.5906L2.51376 36.6694C1.85374 36.7482 1.57395 36.7948 1.51297 36.8234L1.53449 37.1207L1.34079 37.1457L1.19373 35.8995L1.39819 35.8744L1.45558 36.2433C1.53091 36.2576 1.78559 36.2468 2.51376 36.1609L3.0554 36.0964C3.72976 36.0176 3.98444 35.9747 4.09206 35.9496C4.1064 35.8207 4.09923 35.4805 4.06695 35.2119C4.01673 34.8036 3.88401 34.5601 3.64726 34.3166L3.73694 34.2127L4.25706 34.5816L4.26423 34.5923C4.27499 34.7284 4.29652 34.9898 4.32163 35.2083Z" fill="#44627F" stroke="#44627F" stroke-width="0.09397" stroke-miterlimit="10"/>
<mask id="mask0_2770_588" style="mask-type:luminance" maskUnits="userSpaceOnUse" x="7" y="6" width="52" height="52">
<path d="M33.0072 57.4225C46.9816 57.4225 58.3101 46.1123 58.3101 32.1606C58.3101 18.2088 46.9816 6.89862 33.0072 6.89862C19.0327 6.89862 7.70416 18.2088 7.70416 32.1606C7.70416 46.1123 19.0327 57.4225 33.0072 57.4225Z" fill="white"/>
</mask>
<g mask="url(#mask0_2770_588)">
<path d="M-2.82733 32.9665L68.8382 23.2291" stroke="url(#paint0_radial_2770_588)" stroke-width="0.18794" stroke-miterlimit="10"/>
<path d="M37.882 63.8725L28.1288 -7.67316" stroke="url(#paint1_radial_2770_588)" stroke-width="0.18794" stroke-miterlimit="10"/>
<path d="M4.41132 50.2028L61.5995 5.99622" stroke="url(#paint2_radial_2770_588)" stroke-width="0.18794" stroke-miterlimit="10"/>
<path d="M55.1429 56.6455L10.868 -0.44635" stroke="url(#paint3_radial_2770_588)" stroke-width="0.18794" stroke-miterlimit="10"/>
<path d="M19.3119 61.5124L46.699 -5.31677" stroke="url(#paint4_radial_2770_588)" stroke-width="0.18794" stroke-miterlimit="10"/>
<path d="M66.4743 41.7691L-0.463501 14.4265" stroke="url(#paint5_radial_2770_588)" stroke-width="0.18794" stroke-miterlimit="10"/>
<path d="M-0.341492 42.0593L66.356 14.1365" stroke="url(#paint6_radial_2770_588)" stroke-width="0.18794" stroke-miterlimit="10"/>
<path d="M46.9895 61.3942L19.0213 -5.19501" stroke="url(#paint7_radial_2770_588)" stroke-width="0.18794" stroke-miterlimit="10"/>
<path d="M11.1155 56.8389L54.8953 -0.639709" stroke="url(#paint8_radial_2770_588)" stroke-width="0.18794" stroke-miterlimit="10"/>
<path d="M61.7896 49.9522L4.22119 6.24695" stroke="url(#paint9_radial_2770_588)" stroke-width="0.18794" stroke-miterlimit="10"/>
<path d="M28.4409 63.9118L37.5699 -7.71625" stroke="url(#paint10_radial_2770_588)" stroke-width="0.18794" stroke-miterlimit="10"/>
<path d="M68.8776 32.6549L-2.86682 23.5443" stroke="url(#paint11_radial_2770_588)" stroke-width="0.18794" stroke-miterlimit="10"/>
<path d="M-1.88391 37.5934L67.8948 18.6022" stroke="url(#paint12_radial_2770_588)" stroke-width="0.18794" stroke-miterlimit="10"/>
<path d="M42.5165 62.9306L23.4944 -6.73486" stroke="url(#paint13_radial_2770_588)" stroke-width="0.18794" stroke-miterlimit="10"/>
<path d="M7.54639 53.7375L58.4644 2.45801" stroke="url(#paint14_radial_2770_588)" stroke-width="0.18794" stroke-miterlimit="10"/>
<path d="M58.6868 53.5154L7.32397 2.67999" stroke="url(#paint15_radial_2770_588)" stroke-width="0.18794" stroke-miterlimit="10"/>
<path d="M23.7993 63.0129L42.2115 -6.81372" stroke="url(#paint16_radial_2770_588)" stroke-width="0.18794" stroke-miterlimit="10"/>
<path d="M67.9773 37.289L-1.96643 18.9066" stroke="url(#paint17_radial_2770_588)" stroke-width="0.18794" stroke-miterlimit="10"/>
<path d="M1.7677 46.285L64.2432 9.91052" stroke="url(#paint18_radial_2770_588)" stroke-width="0.18794" stroke-miterlimit="10"/>
<path d="M51.2222 59.2848L14.7886 -3.08936" stroke="url(#paint19_radial_2770_588)" stroke-width="0.18794" stroke-miterlimit="10"/>
<path d="M15.0613 59.4425L50.9496 -3.24683" stroke="url(#paint20_radial_2770_588)" stroke-width="0.18794" stroke-miterlimit="10"/>
<path d="M64.401 46.0129L1.60986 10.1827" stroke="url(#paint21_radial_2770_588)" stroke-width="0.18794" stroke-miterlimit="10"/>
<path d="M33.165 64.2019L32.8493 -8.00269" stroke="url(#paint22_radial_2770_588)" stroke-width="0.18794" stroke-miterlimit="10"/>
<path d="M69.1682 27.942L-3.15735 28.2577" stroke="url(#paint23_radial_2770_588)" stroke-width="0.18794" stroke-miterlimit="10"/>
</g>
<mask id="path-58-outside-1_2770_588" maskUnits="userSpaceOnUse" x="16" y="15" width="34" height="37" fill="black">
<rect fill="white" x="16" y="15" width="34" height="37"/>
<path fill-rule="evenodd" clip-rule="evenodd" d="M27.3199 22.48C27.32 22.2302 27.4176 21.9848 27.6012 21.8012L33.1211 16.2812C33.4358 15.9665 33.9255 15.9094 34.3042 16.1431C34.6829 16.3768 34.8513 16.8402 34.7111 17.2625L33.7756 20.08H36.92C37.3083 20.08 37.6583 20.3139 37.8069 20.6726C37.9555 21.0314 37.8734 21.4443 37.5988 21.7188L36.8376 22.48H38.12C40.238 22.48 42.1259 23.4595 43.3572 24.9892L44.0752 22.9486C43.6577 22.5172 43.4 21.9292 43.4 21.28C43.4 19.9545 44.4745 18.88 45.8 18.88C47.1255 18.88 48.2 19.9545 48.2 21.28C48.2 22.066 47.8224 22.7625 47.24 23.1999V32.8C47.24 34.2753 46.216 35.5115 44.84 35.8365V38.08C44.84 44.84 39.36 50.32 32.6 50.32C25.84 50.32 20.36 44.84 20.36 38.08V35.8365C18.984 35.5115 17.96 34.2753 17.96 32.8V23.1999C17.3776 22.7625 17 22.066 17 21.28C17 19.9545 18.0745 18.88 19.4 18.88C20.7255 18.88 21.8 19.9545 21.8 21.28C21.8 21.9292 21.5423 22.5172 21.1248 22.9486L21.8428 24.9892C23.0741 23.4595 24.962 22.48 27.08 22.48H27.3199Z"/>
</mask>
<path fill-rule="evenodd" clip-rule="evenodd" d="M27.3199 22.48C27.32 22.2302 27.4176 21.9848 27.6012 21.8012L33.1211 16.2812C33.4358 15.9665 33.9255 15.9094 34.3042 16.1431C34.6829 16.3768 34.8513 16.8402 34.7111 17.2625L33.7756 20.08H36.92C37.3083 20.08 37.6583 20.3139 37.8069 20.6726C37.9555 21.0314 37.8734 21.4443 37.5988 21.7188L36.8376 22.48H38.12C40.238 22.48 42.1259 23.4595 43.3572 24.9892L44.0752 22.9486C43.6577 22.5172 43.4 21.9292 43.4 21.28C43.4 19.9545 44.4745 18.88 45.8 18.88C47.1255 18.88 48.2 19.9545 48.2 21.28C48.2 22.066 47.8224 22.7625 47.24 23.1999V32.8C47.24 34.2753 46.216 35.5115 44.84 35.8365V38.08C44.84 44.84 39.36 50.32 32.6 50.32C25.84 50.32 20.36 44.84 20.36 38.08V35.8365C18.984 35.5115 17.96 34.2753 17.96 32.8V23.1999C17.3776 22.7625 17 22.066 17 21.28C17 19.9545 18.0745 18.88 19.4 18.88C20.7255 18.88 21.8 19.9545 21.8 21.28C21.8 21.9292 21.5423 22.5172 21.1248 22.9486L21.8428 24.9892C23.0741 23.4595 24.962 22.48 27.08 22.48H27.3199Z" fill="black"/>
<path d="M27.6012 21.8012L28.3083 22.5083L28.3083 22.5083L27.6012 21.8012ZM27.3199 22.48V23.48C27.8721 23.48 28.3198 23.0324 28.3199 22.4802L27.3199 22.48ZM33.1211 16.2812L33.8283 16.9883L33.8283 16.9883L33.1211 16.2812ZM34.3042 16.1431L33.779 16.9941L33.779 16.9941L34.3042 16.1431ZM34.7111 17.2625L35.6601 17.5776L35.6601 17.5776L34.7111 17.2625ZM33.7756 20.08L32.8266 19.7649C32.7253 20.0698 32.7767 20.4047 32.9647 20.6652C33.1527 20.9257 33.4544 21.08 33.7756 21.08V20.08ZM37.8069 20.6726L38.7308 20.29L38.7308 20.29L37.8069 20.6726ZM37.5988 21.7188L36.8917 21.0117L36.8917 21.0117L37.5988 21.7188ZM36.8376 22.48L36.1305 21.7729C35.8445 22.0589 35.759 22.489 35.9137 22.8627C36.0685 23.2364 36.4332 23.48 36.8376 23.48V22.48ZM43.3572 24.9892L42.5782 25.6163C42.8057 25.8989 43.1685 26.0362 43.5261 25.9749C43.8837 25.9136 44.1801 25.6634 44.3005 25.3211L43.3572 24.9892ZM44.0752 22.9486L45.0185 23.2805C45.1442 22.9232 45.0572 22.5254 44.7938 22.2532L44.0752 22.9486ZM47.24 23.1999L46.6395 22.4003C46.388 22.5892 46.24 22.8854 46.24 23.1999H47.24ZM44.84 35.8365L44.6101 34.8633C44.1588 34.9699 43.84 35.3728 43.84 35.8365H44.84ZM20.36 35.8365H21.36C21.36 35.3728 21.0412 34.9699 20.5899 34.8633L20.36 35.8365ZM17.96 23.1999H18.96C18.96 22.8854 18.812 22.5892 18.5605 22.4003L17.96 23.1999ZM21.1248 22.9486L20.4062 22.2532C20.1428 22.5254 20.0557 22.9232 20.1815 23.2805L21.1248 22.9486ZM21.8428 24.9892L20.8995 25.3211C21.0199 25.6634 21.3163 25.9136 21.6739 25.9749C22.0315 26.0362 22.3943 25.8989 22.6218 25.6163L21.8428 24.9892ZM26.894 21.0941C26.519 21.4691 26.3201 21.9705 26.3199 22.4798L28.3199 22.4802C28.3199 22.49 28.3161 22.5005 28.3083 22.5083L26.894 21.0941ZM32.414 15.5741L26.894 21.0941L28.3083 22.5083L33.8283 16.9883L32.414 15.5741ZM34.8294 15.2921C34.0563 14.8149 33.0565 14.9316 32.414 15.5741L33.8283 16.9883C33.8151 17.0014 33.7947 17.0038 33.779 16.9941L34.8294 15.2921ZM35.6601 17.5776C35.9464 16.7153 35.6026 15.7693 34.8294 15.2921L33.779 16.9941C33.7632 16.9843 33.7562 16.965 33.762 16.9474L35.6601 17.5776ZM34.7247 20.3951L35.6601 17.5776L33.762 16.9474L32.8266 19.7649L34.7247 20.3951ZM36.92 19.08H33.7756V21.08H36.92V19.08ZM38.7308 20.29C38.4274 19.5576 37.7127 19.08 36.92 19.08V21.08C36.9038 21.08 36.8892 21.0703 36.883 21.0553L38.7308 20.29ZM38.3059 22.4259C38.8665 21.8654 39.0341 21.0224 38.7308 20.29L36.883 21.0553C36.8768 21.0404 36.8802 21.0232 36.8917 21.0117L38.3059 22.4259ZM37.5447 23.1871L38.3059 22.4259L36.8917 21.0117L36.1305 21.7729L37.5447 23.1871ZM38.12 21.48H36.8376V23.48H38.12V21.48ZM44.1362 24.3622C42.7233 22.6069 40.5536 21.48 38.12 21.48V23.48C39.9224 23.48 41.5285 24.3122 42.5782 25.6163L44.1362 24.3622ZM43.1319 22.6167L42.4139 24.6573L44.3005 25.3211L45.0185 23.2805L43.1319 22.6167ZM42.4 21.28C42.4 22.1994 42.7661 23.034 43.3566 23.6441L44.7938 22.2532C44.5492 22.0005 44.4 21.659 44.4 21.28H42.4ZM45.8 17.88C43.9222 17.88 42.4 19.4022 42.4 21.28H44.4C44.4 20.5068 45.0268 19.88 45.8 19.88V17.88ZM49.2 21.28C49.2 19.4022 47.6777 17.88 45.8 17.88V19.88C46.5732 19.88 47.2 20.5068 47.2 21.28H49.2ZM47.8405 23.9995C48.6633 23.3816 49.2 22.3943 49.2 21.28H47.2C47.2 21.7378 46.9815 22.1434 46.6395 22.4003L47.8405 23.9995ZM48.24 32.8V23.1999H46.24V32.8H48.24ZM45.0699 36.8097C46.887 36.3805 48.24 34.7495 48.24 32.8H46.24C46.24 33.8012 45.545 34.6424 44.6101 34.8633L45.0699 36.8097ZM45.84 38.08V35.8365H43.84V38.08H45.84ZM32.6 51.32C39.9122 51.32 45.84 45.3922 45.84 38.08H43.84C43.84 44.2877 38.8077 49.32 32.6 49.32V51.32ZM19.36 38.08C19.36 45.3922 25.2877 51.32 32.6 51.32V49.32C26.3923 49.32 21.36 44.2877 21.36 38.08H19.36ZM19.36 35.8365V38.08H21.36V35.8365H19.36ZM16.96 32.8C16.96 34.7495 18.313 36.3805 20.1301 36.8097L20.5899 34.8633C19.6549 34.6424 18.96 33.8012 18.96 32.8H16.96ZM16.96 23.1999V32.8H18.96V23.1999H16.96ZM16 21.28C16 22.3943 16.5367 23.3816 17.3595 23.9995L18.5605 22.4003C18.2184 22.1434 18 21.7378 18 21.28H16ZM19.4 17.88C17.5222 17.88 16 19.4022 16 21.28H18C18 20.5068 18.6268 19.88 19.4 19.88V17.88ZM22.8 21.28C22.8 19.4022 21.2778 17.88 19.4 17.88V19.88C20.1732 19.88 20.8 20.5068 20.8 21.28H22.8ZM21.8434 23.6441C22.4338 23.034 22.8 22.1994 22.8 21.28H20.8C20.8 21.659 20.6508 22.0005 20.4062 22.2532L21.8434 23.6441ZM22.7861 24.6573L22.0681 22.6167L20.1815 23.2805L20.8995 25.3211L22.7861 24.6573ZM27.08 21.48C24.6464 21.48 22.4767 22.6069 21.0638 24.3622L22.6218 25.6163C23.6715 24.3122 25.2776 23.48 27.08 23.48V21.48ZM27.3199 21.48H27.08V23.48H27.3199V21.48Z" fill="white" mask="url(#path-58-outside-1_2770_588)"/>
<path d="M21.8 21.28C21.8 19.9545 20.7255 18.88 19.4 18.88C18.0745 18.88 17 19.9545 17 21.28C17 22.066 17.3776 22.7625 17.96 23.1999V32.8C17.96 34.2753 18.984 35.5115 20.36 35.8365V38.08C20.36 44.84 25.84 50.32 32.6 50.32C39.36 50.32 44.84 44.84 44.84 38.08V35.8365C46.216 35.5115 47.24 34.2753 47.24 32.8V23.1999C47.8224 22.7625 48.2 22.066 48.2 21.28C48.2 19.9545 47.1255 18.88 45.8 18.88C44.4745 18.88 43.4 19.9545 43.4 21.28C43.4 21.9292 43.6577 22.5172 44.0752 22.9486L43.3572 24.9892C42.1259 23.4595 40.238 22.48 38.12 22.48H27.08C24.962 22.48 23.0741 23.4595 21.8428 24.9892L21.1248 22.9486C21.5423 22.5172 21.8 21.9292 21.8 21.28Z" fill="black"/>
<path d="M44.36 21.28C44.36 20.4847 45.0047 19.84 45.8 19.84C46.5953 19.84 47.24 20.4847 47.24 21.28C47.24 21.907 46.8393 22.4404 46.28 22.6381V32.8C46.28 33.993 45.3129 34.96 44.12 34.96H43.4V27.76L45.2166 22.597C44.712 22.3731 44.36 21.8677 44.36 21.28Z" fill="#757575"/>
<path d="M20.84 21.28C20.84 20.4847 20.1953 19.84 19.4 19.84C18.6047 19.84 17.96 20.4847 17.96 21.28C17.96 21.907 18.3607 22.4404 18.92 22.6381V32.8C18.92 33.993 19.8871 34.96 21.08 34.96H21.8V27.76L19.9834 22.597C20.488 22.3731 20.84 21.8677 20.84 21.28Z" fill="#757575"/>
<path d="M21.32 29.2C21.32 26.0188 23.8988 23.44 27.08 23.44H38.12C41.3012 23.44 43.88 26.0188 43.88 29.2V38.08C43.88 44.3098 38.8298 49.36 32.6 49.36C26.3702 49.36 21.32 44.3098 21.32 38.08V29.2Z" fill="#CCCCCC"/>
<path d="M27.56 23.44H37.64V31.12H27.56V23.44Z" fill="white"/>
<path d="M30.44 23.2H33.08C34.0078 23.2 34.76 23.9522 34.76 24.88V27.76C34.76 28.9529 33.7929 29.92 32.6 29.92C31.4071 29.92 30.44 28.9529 30.44 27.76V23.2Z" fill="#F03917"/>
<path d="M29 41.2H36.2V43.12H29V41.2Z" fill="black"/>
<path d="M23.48 32.56C23.48 31.7647 24.1247 31.12 24.92 31.12H40.28C41.0753 31.12 41.72 31.7647 41.72 32.56V36.4C41.72 37.1953 41.0753 37.84 40.28 37.84H24.92C24.1247 37.84 23.48 37.1953 23.48 36.4V32.56Z" fill="black"/>
<path d="M25.88 33.76C25.88 32.9647 26.5247 32.32 27.32 32.32C28.1153 32.32 28.76 32.9647 28.76 33.76V35.2C28.76 35.9953 28.1153 36.64 27.32 36.64C26.5247 36.64 25.88 35.9953 25.88 35.2V33.76Z" fill="#30D2F8"/>
<path d="M36.44 33.76C36.44 32.9647 37.0847 32.32 37.88 32.32C38.6753 32.32 39.32 32.9647 39.32 33.76V35.2C39.32 35.9953 38.6753 36.64 37.88 36.64C37.0847 36.64 36.44 35.9953 36.44 35.2V33.76Z" fill="#30D2F8"/>
<path d="M26.3028 47.44C23.2969 45.4137 21.32 41.9777 21.32 38.08V37.989L26.36 42.16V47.44H26.3028Z" fill="#757575"/>
<path d="M43.88 37.989V38.08C43.88 41.9777 41.903 45.4137 38.8972 47.44H38.84V42.16L43.88 37.989Z" fill="#757575"/>
<path fill-rule="evenodd" clip-rule="evenodd" d="M27.6012 21.8012C27.3266 22.0758 27.2445 22.4887 27.393 22.8474C27.5416 23.2061 27.8917 23.44 28.28 23.44H31.4243L30.4889 26.2575C30.3487 26.6799 30.5171 27.1432 30.8958 27.3769C31.2744 27.6107 31.7641 27.5535 32.0788 27.2388L37.5988 21.7188C37.8733 21.4443 37.9555 21.0314 37.8069 20.6726C37.6583 20.3139 37.3083 20.08 36.92 20.08H33.7756L34.7111 17.2625C34.8513 16.8402 34.6829 16.3768 34.3042 16.1431C33.9255 15.9094 33.4358 15.9665 33.1211 16.2812L27.6012 21.8012Z" fill="black"/>
<path d="M28.28 22.48L33.8 16.96L32.4454 21.04H36.92L31.4 26.56L32.7547 22.48H28.28Z" fill="#FFC93A"/>
<defs>
<radialGradient id="paint0_radial_2770_588" cx="0" cy="0" r="1" gradientUnits="userSpaceOnUse" gradientTransform="translate(33.0054 28.0978) rotate(90) scale(4.86867 35.8328)">
<stop stop-color="#44627F" stop-opacity="0"/>
<stop offset="1" stop-color="#44627F" stop-opacity="0.9"/>
</radialGradient>
<radialGradient id="paint1_radial_2770_588" cx="0" cy="0" r="1" gradientUnits="userSpaceOnUse" gradientTransform="translate(33.0054 28.0997) rotate(90) scale(35.7728 4.87658)">
<stop stop-color="#44627F" stop-opacity="0"/>
<stop offset="1" stop-color="#44627F" stop-opacity="0.9"/>
</radialGradient>
<radialGradient id="paint2_radial_2770_588" cx="0" cy="0" r="1" gradientUnits="userSpaceOnUse" gradientTransform="translate(33.0054 28.0995) rotate(90) scale(22.1033 28.5941)">
<stop stop-color="#44627F" stop-opacity="0"/>
<stop offset="1" stop-color="#44627F" stop-opacity="0.9"/>
</radialGradient>
<radialGradient id="paint3_radial_2770_588" cx="0" cy="0" r="1" gradientUnits="userSpaceOnUse" gradientTransform="translate(33.0055 28.0996) rotate(90) scale(28.5459 22.1374)">
<stop stop-color="#44627F" stop-opacity="0"/>
<stop offset="1" stop-color="#44627F" stop-opacity="0.9"/>
</radialGradient>
<radialGradient id="paint4_radial_2770_588" cx="0" cy="0" r="1" gradientUnits="userSpaceOnUse" gradientTransform="translate(33.0054 28.0978) rotate(90) scale(33.4146 13.6935)">
<stop stop-color="#44627F" stop-opacity="0"/>
<stop offset="1" stop-color="#44627F" stop-opacity="0.9"/>
</radialGradient>
<radialGradient id="paint5_radial_2770_588" cx="0" cy="0" r="1" gradientUnits="userSpaceOnUse" gradientTransform="translate(33.0054 28.0978) rotate(90) scale(13.6713 33.4689)">
<stop stop-color="#44627F" stop-opacity="0"/>
<stop offset="1" stop-color="#44627F" stop-opacity="0.9"/>
</radialGradient>
<radialGradient id="paint6_radial_2770_588" cx="0" cy="0" r="1" gradientUnits="userSpaceOnUse" gradientTransform="translate(33.0072 28.0979) rotate(90) scale(13.9614 33.3487)">
<stop stop-color="#44627F" stop-opacity="0"/>
<stop offset="1" stop-color="#44627F" stop-opacity="0.9"/>
</radialGradient>
<radialGradient id="paint7_radial_2770_588" cx="0" cy="0" r="1" gradientUnits="userSpaceOnUse" gradientTransform="translate(33.0054 28.0996) rotate(90) scale(33.2946 13.9841)">
<stop stop-color="#44627F" stop-opacity="0"/>
<stop offset="1" stop-color="#44627F" stop-opacity="0.9"/>
</radialGradient>
<radialGradient id="paint8_radial_2770_588" cx="0" cy="0" r="1" gradientUnits="userSpaceOnUse" gradientTransform="translate(33.0054 28.0996) rotate(90) scale(28.7393 21.8899)">
<stop stop-color="#44627F" stop-opacity="0"/>
<stop offset="1" stop-color="#44627F" stop-opacity="0.9"/>
</radialGradient>
<radialGradient id="paint9_radial_2770_588" cx="0" cy="0" r="1" gradientUnits="userSpaceOnUse" gradientTransform="translate(33.0054 28.0996) rotate(90) scale(21.8526 28.7842)">
<stop stop-color="#44627F" stop-opacity="0"/>
<stop offset="1" stop-color="#44627F" stop-opacity="0.9"/>
</radialGradient>
<radialGradient id="paint10_radial_2770_588" cx="0" cy="0" r="1" gradientUnits="userSpaceOnUse" gradientTransform="translate(33.0054 28.0978) rotate(90) scale(35.814 4.56451)">
<stop stop-color="#44627F" stop-opacity="0"/>
<stop offset="1" stop-color="#44627F" stop-opacity="0.9"/>
</radialGradient>
<radialGradient id="paint11_radial_2770_588" cx="0" cy="0" r="1" gradientUnits="userSpaceOnUse" gradientTransform="translate(33.0054 28.0996) rotate(90) scale(4.55531 35.8722)">
<stop stop-color="#44627F" stop-opacity="0"/>
<stop offset="1" stop-color="#44627F" stop-opacity="0.9"/>
</radialGradient>
<radialGradient id="paint12_radial_2770_588" cx="0" cy="0" r="1" gradientUnits="userSpaceOnUse" gradientTransform="translate(33.0055 28.0978) rotate(90) scale(9.49561 34.8894)">
<stop stop-color="#44627F" stop-opacity="0"/>
<stop offset="1" stop-color="#44627F" stop-opacity="0.9"/>
</radialGradient>
<radialGradient id="paint13_radial_2770_588" cx="0" cy="0" r="1" gradientUnits="userSpaceOnUse" gradientTransform="translate(33.0054 28.0979) rotate(90) scale(34.8327 9.51104)">
<stop stop-color="#44627F" stop-opacity="0"/>
<stop offset="1" stop-color="#44627F" stop-opacity="0.9"/>
</radialGradient>
<radialGradient id="paint14_radial_2770_588" cx="0" cy="0" r="1" gradientUnits="userSpaceOnUse" gradientTransform="translate(33.0054 28.0978) rotate(90) scale(25.6398 25.459)">
<stop stop-color="#44627F" stop-opacity="0"/>
<stop offset="1" stop-color="#44627F" stop-opacity="0.9"/>
</radialGradient>
<radialGradient id="paint15_radial_2770_588" cx="0" cy="0" r="1" gradientUnits="userSpaceOnUse" gradientTransform="translate(33.0054 28.0977) rotate(90) scale(25.4177 25.6814)">
<stop stop-color="#44627F" stop-opacity="0"/>
<stop offset="1" stop-color="#44627F" stop-opacity="0.9"/>
</radialGradient>
<radialGradient id="paint16_radial_2770_588" cx="0" cy="0" r="1" gradientUnits="userSpaceOnUse" gradientTransform="translate(33.0054 28.0996) rotate(90) scale(34.9133 9.20614)">
<stop stop-color="#44627F" stop-opacity="0"/>
<stop offset="1" stop-color="#44627F" stop-opacity="0.9"/>
</radialGradient>
<radialGradient id="paint17_radial_2770_588" cx="0" cy="0" r="1" gradientUnits="userSpaceOnUse" gradientTransform="translate(33.0054 28.0978) rotate(90) scale(9.1912 34.9719)">
<stop stop-color="#44627F" stop-opacity="0"/>
<stop offset="1" stop-color="#44627F" stop-opacity="0.9"/>
</radialGradient>
<radialGradient id="paint18_radial_2770_588" cx="0" cy="0" r="1" gradientUnits="userSpaceOnUse" gradientTransform="translate(33.0055 28.0978) rotate(90) scale(18.1872 31.2378)">
<stop stop-color="#44627F" stop-opacity="0"/>
<stop offset="1" stop-color="#44627F" stop-opacity="0.9"/>
</radialGradient>
<radialGradient id="paint19_radial_2770_588" cx="0" cy="0" r="1" gradientUnits="userSpaceOnUse" gradientTransform="translate(33.0054 28.0977) rotate(90) scale(31.1871 18.2168)">
<stop stop-color="#44627F" stop-opacity="0"/>
<stop offset="1" stop-color="#44627F" stop-opacity="0.9"/>
</radialGradient>
<radialGradient id="paint20_radial_2770_588" cx="0" cy="0" r="1" gradientUnits="userSpaceOnUse" gradientTransform="translate(33.0055 28.0978) rotate(90) scale(31.3446 17.9442)">
<stop stop-color="#44627F" stop-opacity="0"/>
<stop offset="1" stop-color="#44627F" stop-opacity="0.9"/>
</radialGradient>
<radialGradient id="paint21_radial_2770_588" cx="0" cy="0" r="1" gradientUnits="userSpaceOnUse" gradientTransform="translate(33.0054 28.0978) rotate(90) scale(17.9151 31.3956)">
<stop stop-color="#44627F" stop-opacity="0"/>
<stop offset="1" stop-color="#44627F" stop-opacity="0.9"/>
</radialGradient>
<radialGradient id="paint22_radial_2770_588" cx="0" cy="0" r="1" gradientUnits="userSpaceOnUse" gradientTransform="translate(33.0071 28.0996) rotate(90) scale(36.1023 0.157831)">
<stop stop-color="#44627F" stop-opacity="0"/>
<stop offset="1" stop-color="#44627F" stop-opacity="0.9"/>
</radialGradient>
<radialGradient id="paint23_radial_2770_588" cx="0" cy="0" r="1" gradientUnits="userSpaceOnUse" gradientTransform="translate(33.0054 28.0998) rotate(90) scale(0.157829 36.1628)">
<stop stop-color="#44627F" stop-opacity="0"/>
<stop offset="1" stop-color="#44627F" stop-opacity="0.9"/>
</radialGradient>
</defs>
</svg>