<?xml version="1.0" encoding="utf-8" ?>
<svg xmlns="http://www.w3.org/2000/svg" xmlns:xlink="http://www.w3.org/1999/xlink" width="1024" height="1024">
	<path fill="#124262" transform="scale(2 2)" d="M231.909 100.083C235.871 99.6603 252.146 108.473 256.506 110.473L345.161 150.647C352.638 154.053 360.286 157.269 367.633 160.935C374.948 164.584 372.24 177.291 372.24 184.652L372.229 224.236C367.579 224.348 362.903 224.241 358.25 224.236L358.25 178.118C351.211 181.069 344.318 184.662 337.376 187.864L252.193 227.152C248.032 229.108 243.813 230.921 239.687 232.956L239.687 357.472C247.108 354.677 254.378 351.441 261.69 348.373C266.508 346.259 271.248 343.863 276.129 341.916C274.486 347.049 271.337 355.042 269.109 360.138C266.225 362.098 236.665 374.265 233.065 375.172C229.598 376.046 222.581 371.737 219.368 370.278L103.61 318.039C89.4585 311.647 92.2216 313.752 92.2221 298.401L92.2327 200.533C92.2322 189.751 91.9168 178.89 92.2004 168.12C92.4205 159.76 103.466 157.815 110.696 154.607L213.032 107.925C218.198 105.53 226.5 100.884 231.909 100.083ZM105.877 303.937C115.867 307.722 125.604 312.598 135.343 316.991L175.129 334.734C180.698 337.284 224.159 357.948 225.328 357.678L225.431 357.472L225.431 277.561C225.426 262.38 225.124 247.131 225.431 231.957C217.878 228.206 209.976 225.012 202.251 221.625L112.021 181.639C110.006 180.776 107.954 179.745 105.877 179.052L105.873 289.457C105.866 294.271 105.703 299.129 105.877 303.937ZM233.376 220.244C235.284 220.082 243.228 215.878 245.512 214.836L334.492 173.724C339.128 171.563 343.958 169.569 348.451 167.134C336.309 162.022 324.351 156.486 312.351 151.056L288.537 140.433C282.015 137.466 233.343 114.772 231.909 114.694L231.617 114.849C228.513 116.47 225.223 117.806 222.027 119.236L124.521 163.782C122.005 164.919 118.53 165.927 116.316 167.49L116.323 167.812C119.69 170.066 124.665 171.63 128.403 173.33L205.465 207.947C214.216 211.918 224.451 217.049 233.376 220.244Z"/>
	<path fill="#124262" transform="scale(2 2)" d="M390.591 240.751C394.217 240.754 397.853 240.809 401.479 240.729C408.448 240.576 413.024 239.369 414.794 247.493C413.294 252.863 409.786 257.942 407.194 262.875L389.446 296.279C386.417 302 382.873 307.849 380.463 313.848C390.699 314.419 404.87 312.626 414.17 313.933C418.56 314.549 422.073 319.725 419.61 323.81C413.798 333.454 400.817 348.332 393.644 358.076L330.314 442.757C322.692 453.005 314.869 463.176 307.486 473.594C305.7 476.118 302.244 480.749 298.527 479.636C288.804 476.726 293.55 468.196 295.939 461.79L319.253 398.753C322.333 390.34 326.191 381.917 328.474 373.25L302.956 373.258C296.305 373.278 282.113 375.77 285.765 364.143C289.534 352.14 294.241 340.051 298.603 328.235L324.297 257.246C325.759 253.283 327.002 249.204 328.584 245.291C331.415 238.287 348.973 240.832 355.374 240.835L390.591 240.751Z"/>
	<path fill="#EABB86" transform="scale(2 2)" d="M364.736 254.578L395.905 254.578C391.949 262.515 387.581 270.176 383.384 277.983L371.474 300.638C369.171 304.948 361.241 316.918 361.198 321.438C361.119 329.605 372.648 328.013 377.858 328.005L398.827 327.978C393.084 336.411 386.545 344.383 380.417 352.542L351.161 391.591C345.85 398.625 340.401 405.53 335.171 412.628C331.237 417.635 327.503 422.823 323.899 428.072C328.162 414.203 334.467 398.386 339.592 384.671C341.019 380.851 345.895 369.222 346.231 365.718C347.058 357.085 333.114 359.211 328.186 359.211L302.47 359.23C315.414 324.591 327.058 289.313 340.023 254.578L364.736 254.578Z"/>
	<path fill="#64B6DA" transform="scale(2 2)" d="M138.096 64.7722C143.316 64.2801 150.551 73.6466 153.977 76.898C159.439 82.0815 181.916 97.9998 165.555 103.305C159.189 103.68 138.361 81.8896 133.976 76.9045C129.583 71.9106 132.128 66.2189 138.096 64.7722Z"/>
	<path fill="#64B6DA" transform="scale(2 2)" d="M325.889 64.7722C331.028 63.8284 335.874 69.2155 333.081 74.1279C331.188 77.4555 306.884 100.342 302.47 101.733C297.667 101.943 295.447 99.9336 294.154 95.3278C295.648 87.8165 321.327 65.7838 325.889 64.7722Z"/>
	<path fill="#64B6DA" transform="scale(2 2)" d="M96.41 101.733C102.187 100.601 107.877 104.821 113.004 107.028L125.41 112.4C130.185 114.462 138.494 116.822 135.975 123.89C135.193 126.085 133.585 127.369 131.562 128.367C126.246 129.262 93.0178 114.597 91.8196 110.397C90.5822 106.06 92.0447 102.793 96.41 101.733Z"/>
	<path fill="#64B6DA" transform="scale(2 2)" d="M233.376 30.0861C243.403 30.7846 240.356 43.5067 240.374 50.9118C240.397 60.3291 244.197 75.2553 233.376 77.3079C222.985 75.4603 226.391 59.7451 226.373 51.2053C226.357 43.5137 223.355 31.2435 233.376 30.0861Z"/>
	<path fill="#64B6DA" transform="scale(2 2)" d="M284.955 34.5889C289.462 33.2182 293.429 37.9834 292.242 42.3293C291.502 45.0397 290.213 47.6787 289.097 50.2559L282.843 64.3432C280.664 69.2218 279.167 77.2749 273.323 78.8156C269.785 78.7229 265.601 77.0455 265.149 73.0419C264.691 68.9728 279.263 37.8034 280.808 36.0924C281.953 34.8252 283.334 34.6772 284.955 34.5889Z"/>
	<path fill="#64B6DA" transform="scale(2 2)" d="M367.21 100.083C370.502 99.9633 373.553 101.97 374.69 105.116C376.849 111.092 368.718 114.075 364.686 116.019L350.774 122.606C346.906 124.457 342.907 127.058 338.85 128.367C333.411 128.384 328.577 122.411 332.265 117.411C334.363 114.567 364.275 100.581 367.21 100.083Z"/>
	<path fill="#64B6DA" transform="scale(2 2)" d="M178.972 34.5889C187.156 33.3735 191.28 48.5673 194.249 54.7649C197.485 61.5195 207.555 74.3692 196.558 78.8156C188.832 79.8553 180.868 58.2461 177.718 51.6465C174.618 45.1497 170.241 38.3337 178.972 34.5889Z"/>
</svg>
